<svg width="1200" height="900" viewBox="0 0 1200 900" fill="none" xmlns="http://www.w3.org/2000/svg">
  <defs>
    <linearGradient id="bg" x1="0" y1="0" x2="1" y2="1">
      <stop offset="0%" stop-color="#FFF1E8"/>
      <stop offset="60%" stop-color="#FFE0C7"/>
      <stop offset="100%" stop-color="#FFD0B2"/>
    </linearGradient>
    <linearGradient id="card" x1="0" y1="0" x2="1" y2="1">
      <stop offset="0%" stop-color="#FFFFFF"/>
      <stop offset="100%" stop-color="#FFF7F0"/>
    </linearGradient>
    <linearGradient id="accent" x1="0" y1="0" x2="1" y2="1">
      <stop offset="0%" stop-color="#FF8000"/>
      <stop offset="100%" stop-color="#FFB347"/>
    </linearGradient>
  </defs>
  <rect width="1200" height="900" rx="48" fill="url(#bg)"/>

  <circle cx="220" cy="190" r="140" fill="#FFB347" fill-opacity="0.35"/>
  <circle cx="1020" cy="130" r="110" fill="#FF8C5A" fill-opacity="0.28"/>
  <circle cx="980" cy="760" r="160" fill="#FFB347" fill-opacity="0.22"/>

  <rect x="140" y="170" width="470" height="280" rx="32" fill="url(#card)" stroke="#FFD6B8" stroke-width="2"/>
  <rect x="175" y="210" width="190" height="18" rx="9" fill="#F2E3D6"/>
  <rect x="175" y="250" width="330" height="14" rx="7" fill="#F7EDE4"/>
  <rect x="175" y="280" width="300" height="14" rx="7" fill="#F7EDE4"/>
  <rect x="175" y="310" width="250" height="14" rx="7" fill="#F7EDE4"/>
  <rect x="175" y="350" width="140" height="38" rx="19" fill="url(#accent)"/>

  <rect x="640" y="220" width="420" height="240" rx="32" fill="url(#card)" stroke="#FFD6B8" stroke-width="2"/>
  <rect x="680" y="260" width="230" height="16" rx="8" fill="#F2E3D6"/>
  <rect x="680" y="295" width="300" height="12" rx="6" fill="#F7EDE4"/>
  <rect x="680" y="320" width="280" height="12" rx="6" fill="#F7EDE4"/>
  <rect x="680" y="350" width="120" height="34" rx="17" fill="url(#accent)"/>

  <rect x="250" y="520" width="700" height="200" rx="36" fill="#FFFFFF" stroke="#FFD6B8" stroke-width="2"/>
  <circle cx="320" cy="620" r="44" fill="#FFE8D6"/>
  <rect x="380" y="580" width="260" height="16" rx="8" fill="#F2E3D6"/>
  <rect x="380" y="610" width="320" height="14" rx="7" fill="#F7EDE4"/>
  <rect x="380" y="640" width="280" height="14" rx="7" fill="#F7EDE4"/>

  <path d="M985 525c0-45-36-80-82-80h-40c-46 0-82 35-82 80v44c0 45 36 80 82 80h5l53 43v-43h-18c46 0 82-35 82-80v-44z" fill="#FFF3E6" stroke="#FFD6B8" stroke-width="2"/>
  <rect x="840" y="560" width="150" height="10" rx="5" fill="#F7EDE4"/>
  <rect x="840" y="580" width="120" height="10" rx="5" fill="#F7EDE4"/>
</svg>
